PathFileType	4	(X/Y/Z)	pose_F01_0-96.trc
DataRate	CameraRate	NumFrames	NumMarkers	Units	OrigDataRate	OrigDataStartFrame	OrigNumFrames
30	30	9	21	m	30	72	96
Frame#	Time	CHip			RHip			RKnee			RAnkle			RBigToe			RSmallToe			RHeel			LHip			LKnee			LAnkle			LBigToe			LSmallToe			LHeel			Neck			Nose			RShoulder			RElbow			RWrist			LShoulder			LElbow			LWrist			
		X1	Y1	Z1	X2	Y2	Z2	X3	Y3	Z3	X4	Y4	Z4	X5	Y5	Z5	X6	Y6	Z6	X7	Y7	Z7	X8	Y8	Z8	X9	Y9	Z9	X10	Y10	Z10	X11	Y11	Z11	X12	Y12	Z12	X13	Y13	Z13	X14	Y14	Z14	X15	Y15	Z15	X16	Y16	Z16	X17	Y17	Z17	X18	Y18	Z18	X19	Y19	Z19	X20	Y20	Z20	X21	Y21	Z21	
72	2.4	-0.25151913156830064	1.8710761074186237	-0.49134677230297363	-0.262648793606315	1.8677454735588939	-0.4160534410284183	-0.2550948857980687	1.718859901857484	-0.3768788213762525	-0.2295423504464595	1.5651530248106078	-0.4475074485727219	-0.2585302240289419	1.5237095425407883	-0.447849993645157	-0.2557138992844674	1.5314121090978758	-0.42455959056682596	-0.2234731090876977	1.558611322005674	-0.4672944854519867	-0.24168439286759513	1.8731305355835213	-0.566983957175751	-0.2371554599074696	1.7109563520589117	-0.6137608826304399	-0.20983645270455528	1.5522976135403201	-0.6677605574438891	-0.32606121244691105	1.4807985903880767	-1.0199259383705117	-0.3104557365055271	1.4838723421733861	-1.0480666303073845	-0.20181976564104065	1.541398691152036	-0.6577026148721999	-0.2453833331620552	2.0564120590879424	-0.5187549662911036	-0.2729881485446746	2.1349191783154713	-0.5104197918570126	-0.25923392347431	2.0544718635451824	-0.41459502660718284	-0.2632105699836616	1.9572287120466871	-0.37550597252438417	-0.2813291984856274	1.86898022298156	-0.3306424047170109	-0.22741560556104523	2.058627441648094	-0.620130045380588	-0.22070454912296317	1.9665122011706992	-0.6411543310463509	-0.22887695925016913	1.8786092298793593	-0.6570487513873428
73	2.433333333333333	-0.25289566377454964	1.8662500651290745	-0.4936964241351101	-0.26414831081855583	1.864239329667273	-0.41871328087870774	-0.25550917575367676	1.7199783428025945	-0.3765002996536686	-0.2295423504464595	1.5651530248106078	-0.4475074485727219	-0.2585302240289419	1.5237095425407883	-0.447849993645157	-0.2557138992844674	1.5314121090978758	-0.42455959056682596	-0.2234731090876977	1.558611322005674	-0.4672944854519867	-0.24237295055090904	1.868496733065301	-0.5663832720876818	-0.2377999036525608	1.7108566463002997	-0.6130769478631833	-0.2103748115816521	1.5525134967870655	-0.6669082796082186	-0.3229856855980554	1.4808255697031498	-1.0202571463167085	-0.3094830249530613	1.4832006847206944	-1.0442539631502898	-0.20186078739759453	1.5414202896332507	-0.6575945423696474	-0.24344236068240188	2.0564248021578675	-0.5207962259293034	-0.27105431631343446	2.135042510384789	-0.5124567340817693	-0.2573797400576049	2.0543827599840205	-0.41661548424152245	-0.26035665825777415	1.9573404888380013	-0.382680816233926	-0.2791050224700452	1.873883762468467	-0.34792060932014435	-0.22646988068741072	2.0585168687534594	-0.6172071270212994	-0.2208692848129815	1.9627029396026336	-0.6408106862261598	-0.23163435044469927	1.86821139824959	-0.6531918552235644
74	2.466666666666667	-0.2528419785826782	1.8688812471185126	-0.4942773220909518	-0.2641567411482339	1.8668577120861383	-0.4193283296439901	-0.25396459613328043	1.718690242180447	-0.3734774876642132	-0.2295423504464595	1.5651530248106078	-0.4475074485727219	-0.2585302240289419	1.5237095425407883	-0.447849993645157	-0.2557138992844674	1.5314121090978758	-0.42455959056682596	-0.2234731090876977	1.558611322005674	-0.4672944854519867	-0.24291906594341395	1.8709021656840918	-0.5698779920201414	-0.23913103009739298	1.7095256805957035	-0.6117645394778355	-0.2101511102610607	1.5510566082967099	-0.6671453753760219	-0.32609572451450464	1.4805998439524686	-1.0210428171820578	-0.31048661707525194	1.4825050790391059	-1.0482785564979236	-0.202168463286973	1.5403847676956202	-0.6570604383359122	-0.24342177668026652	2.0564542445693483	-0.520908660370075	-0.27104253536829565	2.1350576628385	-0.5124553727330745	-0.25736346102751334	2.0544346865006173	-0.4167432884157397	-0.26236595910998867	1.9545850625294012	-0.38009995542909364	-0.2767346693244603	1.8654546576427253	-0.3543106699557142	-0.22733792987089388	2.0586279795870146	-0.6201904078134134	-0.2209088029872987	1.9639222109898387	-0.6407914783064849	-0.2326365520908363	1.8704709587770103	-0.6481395967303748
75	2.5	-0.25277013345503513	1.867546659944725	-0.49396352350824685	-0.26588673231692417	1.8654805009476083	-0.41699681310181486	-0.25432755340742585	1.7185488249297647	-0.3731596844434862	-0.2295423504464595	1.5651530248106078	-0.4475074485727219	-0.2585302240289419	1.5237095425407883	-0.447849993645157	-0.2557138992844674	1.5314121090978758	-0.42455959056682596	-0.2234731090876977	1.558611322005674	-0.4672944854519867	-0.2420546822847463	1.870921228131072	-0.566742651142087	-0.23724252230448473	1.7081705575327908	-0.6134435400929241	-0.21044653971907754	1.5525482762155816	-0.6667957682650475	-0.3220213151490351	1.4813450430550632	-1.017463999499339	-0.30729422180600663	1.4827949021805134	-1.0476400267240635	-0.20403267698955532	1.5412242918931627	-0.6553507466567698	-0.24343604855114437	2.0564283707993605	-0.5208821891881849	-0.2710272649210804	2.133781957715607	-0.5118840961658728	-0.25743284281108864	2.0542765234989204	-0.41662283256113725	-0.2643613834178027	1.9533327935881486	-0.3777943960578133	-0.27493400440853616	1.8647516581713621	-0.3563986783380448	-0.22529985533791613	2.0587037126390726	-0.6223274872248665	-0.2209289488785688	1.9666139183322904	-0.6414744110698676	-0.2323380586940497	1.874722502865143	-0.6484146655311597
76	2.533333333333333	-0.25259912012750063	1.8686908970483433	-0.4940049363230501	-0.26468685385434326	1.8665809041983192	-0.4138292119047763	-0.2538231483351573	1.7175007740081205	-0.37347831763778144	-0.2295423504464595	1.5651530248106078	-0.4475074485727219	-0.2585302240289419	1.5237095425407883	-0.447849993645157	-0.2557138992844674	1.5314121090978758	-0.42455959056682596	-0.2234731090876977	1.558611322005674	-0.4672944854519867	-0.2419102176003205	1.8720577004715735	-0.566888250428499	-0.23912223980994463	1.7094457337196076	-0.6117873938588071	-0.211125050561836	1.5510487998619742	-0.6701356840589688	-0.32294584401160836	1.4795238787665126	-1.0204815768916915	-0.30730832589613366	1.4827631629616695	-1.0475722262318754	-0.20441684706610375	1.5401337776116664	-0.6548620722706557	-0.24351236735091	2.0553333256140975	-0.52111199643741	-0.2710393136595877	2.1324984336966333	-0.5112897267373895	-0.25740907435109384	2.0542552212488383	-0.41679002658568653	-0.2633169624329686	1.954707638584684	-0.3751274913362541	-0.27669453532912974	1.8632419374296418	-0.3539003202172123	-0.22617939134178192	2.0588198355207856	-0.625399453262608	-0.2206859207210351	1.9653428384922031	-0.6409629282927372	-0.23414175340501067	1.8724645095420174	-0.6461195313535266
77	2.566666666666667	-0.2526501230362553	1.8700128173293387	-0.4942739823940099	-0.2647645885579307	1.8678756816474589	-0.41410144424141127	-0.2519423064134079	1.7177082322462949	-0.37556374341220994	-0.2295423504464595	1.5651530248106078	-0.4475074485727219	-0.2585302240289419	1.5237095425407883	-0.447849993645157	-0.2557138992844674	1.5314121090978758	-0.42455959056682596	-0.2234731090876977	1.558611322005674	-0.4672944854519867	-0.2418399560019013	1.8719763890425667	-0.5669101199368193	-0.24030290160219572	1.7093215786360372	-0.6061985075330522	-0.21195048922111293	1.5521639937268397	-0.6655230348485682	-0.32605210591986417	1.4808004235366246	-1.0199678924864284	-0.31045953523345043	1.4851962049342256	-1.0478823140652707	-0.20361376906928558	1.5422226325345476	-0.6560732264099763	-0.2442867115912855	2.057864628602719	-0.5245312837309768	-0.26908683353470936	2.132609538813782	-0.5133383755402913	-0.25656950851446136	2.054434809430291	-0.42197660443989865	-0.26332900555539784	1.9563329323658278	-0.37560031055973725	-0.2761469137029592	1.8639200940954976	-0.34507370740643467	-0.22409904675887865	2.0588412401357155	-0.6275945236751067	-0.2207254275912523	1.9667179365873277	-0.6411974654202582	-0.23223302657483963	1.875456332843603	-0.6487988906500013
78	2.6	-0.25164356131228993	1.8699702975241594	-0.4910200230865536	-0.26468537018702887	1.8678451304115544	-0.4139170203891824	-0.2536716469009446	1.719393630929859	-0.37383243746477746	-0.2295423504464595	1.5651530248106078	-0.4475074485727219	-0.2585302240289419	1.5237095425407883	-0.447849993645157	-0.2557138992844674	1.5314121090978758	-0.42455959056682596	-0.2234731090876977	1.558611322005674	-0.4672944854519867	-0.24088590056321912	1.8720046824150056	-0.5636306670143498	-0.23829539151953252	1.7109135331694438	-0.6084583054688486	-0.21207333049814933	1.5493875131643824	-0.6651919861058303	-0.3273942926754008	1.4804692896886338	-1.0136501024211297	-0.3118179940088045	1.4836905927582946	-1.0417136318398739	-0.20193330688131095	1.5386478592414634	-0.6572584901862961	-0.2433496628950205	2.0563958143891234	-0.5209562278460464	-0.2670401528576958	2.134040096172025	-0.5159902513798715	-0.2555322842478711	2.0542827178179457	-0.4188210179567563	-0.25910697546511346	1.9584445250117277	-0.37120231709944423	-0.2725383878078132	1.8680993406375606	-0.33584544447296166	-0.22522916424846076	2.0586276942505384	-0.6223799803328677	-0.21998674651869546	1.9653474080291558	-0.6382036033358998	-0.2303613545377039	1.8757680666122019	-0.6510536787964122
79	2.6333333333333333	-0.2511260224862327	1.8730004472177908	-0.4884265918926579	-0.26409158243202685	1.8709193690463133	-0.4113846960713506	-0.254283698004662	1.7215315037792163	-0.37342016273427736	-0.2295423504464595	1.5651530248106078	-0.4475074485727219	-0.2585302240289419	1.5237095425407883	-0.447849993645157	-0.2557138992844674	1.5314121090978758	-0.42455959056682596	-0.2234731090876977	1.558611322005674	-0.4672944854519867	-0.24251440773097085	1.8736917494035419	-0.5585867927223553	-0.23967295691797227	1.709388124012946	-0.6025676918173367	-0.21168815864394805	1.5534262761692361	-0.6661252309491035	-0.32208407175264675	1.4814194173346318	-1.0173720023272546	-0.30954896439680135	1.4857395358453158	-1.044837665490756	-0.20364938029802293	1.542245260831564	-0.656037347773853	-0.2433223927805443	2.0563721971511084	-0.5208736903915531	-0.2669868883761112	2.135329611586306	-0.5165886727623702	-0.25548137308758234	2.0542044724866306	-0.4187737626288296	-0.25798314743375134	1.9599278000860936	-0.3684470883644494	-0.2730774556929358	1.8762542244090799	-0.3316091682521769	-0.22436299791730638	2.058492998140085	-0.6193735758376178	-0.21998510045444072	1.9614789433616653	-0.6374639324673017	-0.23313061064120852	1.86811577675333	-0.6477743012225499
80	2.6666666666666665	-0.2519085099511779	1.871451768556467	-0.4826027879284133	-0.2627826390120533	1.8705938566443787	-0.40777980531361757	-0.25495954832575013	1.7202638618974047	-0.3679664195457404	-0.2295423504464595	1.5651530248106078	-0.4475074485727219	-0.2585302240289419	1.5237095425407883	-0.447849993645157	-0.2557138992844674	1.5314121090978758	-0.42455959056682596	-0.2234731090876977	1.558611322005674	-0.4672944854519867	-0.24133546026746977	1.873416907138253	-0.5551303473973068	-0.23873078922064353	1.7092640698997374	-0.5991582949597365	-0.21176336319089017	1.5535318011370145	-0.6660569229262254	-0.3238276238246766	1.480464463066246	-1.0233604826951783	-0.30823031418961366	1.4850573737490638	-1.0501798408659928	-0.2033737072008526	1.5434891595279359	-0.6566920316317668	-0.2414130655576656	2.0561167085001375	-0.5147497573295415	-0.2660325889445677	2.13395121316094	-0.5129538828211341	-0.25338906410769835	2.0542248235783283	-0.4126060938398153	-0.2569393835159116	1.9573477669300168	-0.36473191977279434	-0.2712260126998213	1.8713164821483785	-0.3243162571724766	-0.2234904170306257	2.0582836676859664	-0.6162713672557825	-0.21980284181716025	1.9651520847532498	-0.6376309841223844	-0.22947161424373658	1.8732240616570695	-0.6475002112994735
